<?xml version="1.0" encoding="utf-8"?>
<!-- Generator: Adobe Illustrator 25.4.1, SVG Export Plug-In . SVG Version: 6.00 Build 0)  -->
<svg version="1.1" id="Layer_1" xmlns="http://www.w3.org/2000/svg" xmlns:xlink="http://www.w3.org/1999/xlink" x="0px" y="0px"
	 viewBox="0 0 41.2 53.3" style="enable-background:new 0 0 41.2 53.3;" xml:space="preserve">
<style type="text/css">
	.st0{fill:#F2F2F2;}
</style>
<g>
	<path class="st0" d="M28.1,24.6c-4.5-4-11.3-4-15.8,0h0c-1.7,1.5-2.9,3.3-2.9,4.2c0,0.9,1.1,2.7,2.9,4.2c4.5,4,11.3,4,15.8,0
		c1.7-1.5,2.9-3.3,2.9-4.2S29.8,26.1,28.1,24.6z M20.2,33.8c-2.8,0-5.1-2.3-5.1-5.1s2.3-5.1,5.1-5.1s5.1,2.3,5.1,5.1
		S23,33.8,20.2,33.8z"/>
	<path class="st0" d="M39.6,0h-26c-0.2,0-0.4,0-0.6,0.1c-0.2,0.1-0.4,0.2-0.5,0.3L0.5,12.6c-0.1,0.1-0.3,0.3-0.3,0.5
		C0,13.3,0,13.5,0,13.7v38.1c0,0.9,0.7,1.5,1.5,1.5h38.1l0,0c0.9,0,1.5-0.7,1.5-1.5V1.5C41.2,0.7,40.5,0,39.6,0z M30.3,35.1
		c-5.8,5.1-14.4,5.1-20.2,0c-2.3-2-3.9-4.5-3.9-6.3c0-1.8,1.6-4.3,3.9-6.4c5.8-5.1,14.4-5.1,20.2,0c2.3,2,3.9,4.5,3.9,6.3
		C34.2,30.5,32.6,33.1,30.3,35.1z"/>
</g>
</svg>
