<?xml version="1.0" encoding="utf-8"?>
<!-- Generator: Adobe Illustrator 25.4.1, SVG Export Plug-In . SVG Version: 6.00 Build 0)  -->
<svg version="1.1" id="Layer_1" xmlns="http://www.w3.org/2000/svg" xmlns:xlink="http://www.w3.org/1999/xlink" x="0px" y="0px"
	 viewBox="0 0 41.2 53.3" style="enable-background:new 0 0 41.2 53.3;" xml:space="preserve">
<style type="text/css">
	.st0{fill:#F2F2F2;}
</style>
<g>
	
		<rect x="12.1" y="25.4" transform="matrix(0.7071 -0.7071 0.7071 0.7071 -14.2116 22.1402)" class="st0" width="14.9" height="5.7"/>
	<path class="st0" d="M27.2,17.8c-0.7,0-1.5,0.3-2,0.9l-0.8,0.8l4,4l0.8-0.8c0.5-0.5,0.8-1.2,0.8-2c0-0.8-0.3-1.5-0.8-2
		C28.7,18,27.9,17.8,27.2,17.8z"/>
	<path class="st0" d="M39.6,0h-26c-0.2,0-0.4,0-0.6,0.1c-0.2,0.1-0.4,0.2-0.5,0.3L0.5,12.6c-0.1,0.1-0.3,0.3-0.3,0.5
		C0,13.3,0,13.5,0,13.7v38.1c0,0.9,0.7,1.5,1.5,1.5h38.1v0c0.9,0,1.5-0.7,1.5-1.5V1.5C41.2,0.7,40.5,0,39.6,0z M30.7,24.1L17.1,37.7
		c-0.3,0.3-0.7,0.5-1.1,0.6l-7.4,2.2c-0.1,0-0.2,0-0.3,0v0c-0.2,0-0.5-0.1-0.7-0.3c-0.3-0.3-0.4-0.7-0.3-1.1l2.2-7.4
		c0.1-0.4,0.4-0.8,0.6-1.1l13.6-13.6c2-2,5.1-2,7,0C32.7,19,32.7,22.2,30.7,24.1z"/>
	<polygon class="st0" points="9.9,37.9 14.4,36.6 11.2,33.4 	"/>
</g>
</svg>
