<?xml version="1.0" encoding="utf-8"?>
<!-- Generator: Adobe Illustrator 25.4.1, SVG Export Plug-In . SVG Version: 6.00 Build 0)  -->
<svg version="1.1" id="Layer_1" xmlns="http://www.w3.org/2000/svg" xmlns:xlink="http://www.w3.org/1999/xlink" x="0px" y="0px"
	 viewBox="0 0 41.2 53.3" style="enable-background:new 0 0 41.2 53.3;" xml:space="preserve">
<style type="text/css">
	.st0{fill:#FFFFFF;}
</style>
<path class="st0" d="M39.6,0h-26c-0.2,0-0.4,0-0.6,0.1c-0.2,0.1-0.4,0.2-0.5,0.3L0.5,12.6c-0.1,0.1-0.3,0.3-0.3,0.5
	C0,13.3,0,13.5,0,13.7v38.1c0,0.9,0.7,1.5,1.5,1.5h38.1v0c0.9,0,1.5-0.7,1.5-1.5V1.5C41.2,0.7,40.5,0,39.6,0z M23,33.3
	c1.9,1.8,3.7,3.6,5.5,5.5c0.2,0.2,0.5,0.4,0.7,0.7c0.7,0.7,0.9,1.6,0.2,2.4c-0.8,0.9-1.7,0.6-2.5-0.1c-2-1.9-4-3.8-5.9-5.9
	c-0.9-1-1.4-0.9-2.2,0.1c-1.7,1.9-3.6,3.7-5.5,5.5c-1.1,1.1-2,1.2-2.8,0.4c-0.7-0.7-0.5-1.7,0.5-2.8c1.8-1.8,3.6-3.7,5.5-5.4
	c1-0.9,0.9-1.4,0-2.2c-1.9-1.8-3.7-3.7-5.6-5.6c-0.5-0.4-0.9-0.9-0.8-1.6c0-0.6,0.3-1.2,0.9-1.4c0.8-0.3,1.5-0.1,2.1,0.5
	c2,2.1,4.1,4.1,6.1,6.2c0.6,0.6,0.9,0.6,1.5,0c1.8-1.9,3.7-3.7,5.5-5.5c0.2-0.2,0.4-0.4,0.7-0.7c0.8-0.8,1.7-1,2.5-0.2
	c0.8,0.8,0.6,1.7-0.2,2.5c-2,2.1-4.1,4.1-6.2,6.1C22.3,32.4,22.3,32.7,23,33.3z"/>
</svg>
