<?xml version="1.0" encoding="utf-8"?>
<!-- Generator: Adobe Illustrator 25.4.1, SVG Export Plug-In . SVG Version: 6.00 Build 0)  -->
<svg version="1.1" id="Layer_1" xmlns="http://www.w3.org/2000/svg" xmlns:xlink="http://www.w3.org/1999/xlink" x="0px" y="0px"
	 viewBox="0 0 41.2 53.3" style="enable-background:new 0 0 41.2 53.3;" xml:space="preserve">
<style type="text/css">
	.st0{fill:#4285F4;}
</style>
<path class="st0" d="M39.6,0h-26c-0.2,0-0.4,0-0.6,0.1c-0.2,0.1-0.4,0.2-0.5,0.3L0.5,12.6c-0.1,0.1-0.3,0.3-0.3,0.5
	C0,13.3,0,13.5,0,13.7v38.1c0,0.9,0.7,1.5,1.5,1.5h38.1l0,0c0.9,0,1.5-0.7,1.5-1.5V1.5C41.2,0.7,40.5,0,39.6,0z M29.8,29.4h-7v7
	c0,1.1-0.9,2-2,2s-2-0.9-2-2v-7h-7c-1.1,0-2-0.9-2-2c0-1.1,0.9-2,2-2h0h7l0-7c0-1.1,0.9-2,2-2s2,0.9,2,2v7l7,0c1.1,0,2,0.9,2,2
	C31.8,28.5,31,29.4,29.8,29.4z"/>
</svg>
