<?xml version="1.0" encoding="utf-8"?>
<!-- Generator: Adobe Illustrator 25.4.1, SVG Export Plug-In . SVG Version: 6.00 Build 0)  -->
<svg version="1.1" id="Layer_1" xmlns="http://www.w3.org/2000/svg" xmlns:xlink="http://www.w3.org/1999/xlink" x="0px" y="0px"
	 viewBox="0 0 41.2 53.3" style="enable-background:new 0 0 41.2 53.3;" xml:space="preserve">
<style type="text/css">
	.st0{fill:#FFFFFF;}
</style>
<path class="st0" d="M39.6,0h-26c-0.2,0-0.4,0-0.6,0.1c-0.2,0.1-0.4,0.2-0.5,0.3L0.5,12.6c-0.1,0.1-0.3,0.3-0.3,0.5
	C0,13.3,0,13.5,0,13.7v38.1c0,0.9,0.7,1.5,1.5,1.5h38.1v0c0.9,0,1.5-0.7,1.5-1.5V1.5C41.2,0.7,40.5,0,39.6,0z M31.6,23.3
	c-0.3,0.5-0.7,0.9-1.1,1.3c-6.1,6.1-4.2,4.2-10.3,10.3c-2.1,2.1-3,2-4.9-0.1c-2-2.2-2.1-2.5-4.2-4.7c-0.7-0.8-1.2-1.6-0.6-2.7
	c0.4-0.8,1-1.2,1.9-1.3c1,0,1.6,0.6,2.2,1.2c1.4,1.5,0.9,1.1,2.2,2.7c0.8,1,1.3,0.9,2.2,0c5.4-5.5,2.8-2.9,8.3-8.3
	c0.4-0.4,0.9-0.9,1.4-1.2c1-0.5,1.9-0.4,2.7,0.4C32.1,21.5,32.2,22.4,31.6,23.3z"/>
</svg>
