<svg id="Layer_1" data-name="Layer 1" xmlns="http://www.w3.org/2000/svg" viewBox="0 0 512.51 173"><defs><style>.cls-1{fill:#4285f4;}.cls-2{fill:#d4145a;}.cls-3{fill:#fdbd00;}</style></defs><title>black-logo-mark</title><rect x="-1.75" y="-2" width="516" height="177"/><path class="cls-1" d="M87.07,171.06C39.75,172,1.57,133.35,2.26,85.8,1.57,38.71,39.28,1,86.13,1.94c48-.94,86,37.24,85.26,84.8A82.54,82.54,0,0,1,87.07,171.06ZM86.36,24.19c-33-.7-60.43,26.71-59.73,61.84,0,36.31,26.7,62.78,60.2,62.78S147,122.8,147,86.5C147.73,51.59,119.39,23.49,86.36,24.19Z"/><path class="cls-2" d="M348.29,141.53l116.52-54-116.6-54c-5.86-2.93-7.32-4.65-7.32-9.78V10c0-3.41,1-5.13,3.17-5.13a16.19,16.19,0,0,1,4.15,1.23L498,78c10,4.89,12.21,6.12,12.21,9.05,0,3.18-2.19,4.64-12.21,9.53L348.29,167.68a16.55,16.55,0,0,1-4.14,1.22c-2.21,0-3.18-1.71-3.18-4.89v-12.7C341,146.18,342.43,144.22,348.29,141.53Z"/><path class="cls-3" d="M223.42,171c-2.93,0-4.15-1.21-4.15-4.15V6.11c0-2.94,1.22-4.15,4.15-4.15h15.74c2.94,0,4.32,1.21,4.32,4.15V166.8c0,2.94-1.38,4.15-4.32,4.15Z"/><path class="cls-3" d="M273,171c-2.93,0-4.15-1.21-4.15-4.15V6.11C268.81,3.17,270,2,273,2H288.7C291.64,2,293,3.17,293,6.11V166.8c0,2.94-1.38,4.15-4.32,4.15Z"/></svg>