<svg id="Layer_1" data-name="Layer 1" xmlns="http://www.w3.org/2000/svg" viewBox="0 0 101.79 72"><defs><style>.cls-1{fill:#fff;}.cls-2{fill:#d4145a;}</style></defs><path class="cls-1" d="M17.76,36.55c-.71,0-1-.3-1-1V8.22c0-.71.29-1,1-1h8.89c8.42,0,12.52,3.15,12.52,9.52a7.88,7.88,0,0,1-5.32,7.75l6.79,10.77A2.14,2.14,0,0,1,41,36c0,.34-.34.51-1,.51H35.91a2,2,0,0,1-2.06-1.22l-7.16-11.9a1.19,1.19,0,0,1-.25-.63c0-.29.25-.42.75-.46,3.52-.38,5.87-2.05,5.87-5.11,0-3.31-2.31-4.78-6.62-4.78H23.17c-.38,0-.55.09-.55.55V35.54c0,.71-.33,1-1,1Z"/><path class="cls-1" d="M39.85,36.55H36.12c-.63,0-.92-.21-.92-.59a2.56,2.56,0,0,1,.21-.71l13-26.61c.79-1.68,1.17-2.1,1.8-2.1S51.16,7,52,8.64L65.11,35.25a2.56,2.56,0,0,1,.21.71c0,.38-.29.59-.92.59h-4c-1,0-1.34-.26-1.84-1.3L50.11,17.4,41.73,35.25C41.23,36.29,40.85,36.55,39.85,36.55Z"/><path class="cls-1" d="M63.73,36.55c-.71,0-1-.3-1-1V8.22c0-.71.29-1,1-1h17c.71,0,1,.3,1,1v3.44c0,.71-.25,1-1,1H69.14c-.38,0-.55.17-.55.55v6.16c0,.37.17.54.55.54H79.28c.79,0,1,.25,1,1.05v3.39c0,.71-.33,1-1,1H69.14c-.38,0-.55.17-.55.54v9.64c0,.71-.33,1-1,1Z"/><path class="cls-2" d="M19.54,64.21c0,.48-.17.63-.62.63h-1.6c-.46,0-.63-.15-.63-.63V45.51c0-.48.17-.63.63-.63h5.5c5.45,0,8.1,2.26,8.1,6.56s-3,6.81-8.36,6.81H19.88c-.25,0-.34.09-.34.32Zm0-9c0,.23.09.34.34.34h2.77c3.34,0,5.3-1.31,5.3-4s-1.85-3.91-5.3-3.91H19.88c-.25,0-.34.09-.34.32Z"/><path class="cls-2" d="M46.08,62.13c.45,0,.62.14.62.63v1.45c0,.48-.17.63-.62.63h-11c-.45,0-.63-.15-.63-.63V45.51c0-.48.18-.63.63-.63h1.6c.45,0,.63.15.63.63v16.3c0,.23.08.32.34.32Z"/><path class="cls-2" d="M50.09,56.43V45.51c0-.48.17-.63.63-.63h1.57c.48,0,.65.15.65.63V56.26c0,3.9,1.88,6.18,5.3,6.18s5.42-2.34,5.42-6.15V45.51c0-.48.17-.63.6-.63h1.59c.49,0,.66.15.66.63V56.34c0,5.82-3.48,8.81-8.38,8.81C53.4,65.15,50.09,62.33,50.09,56.43Z"/><path class="cls-2" d="M71.1,60.45a8.51,8.51,0,0,0,5.21,2c2.62,0,4.31-1.2,4.31-3S79.53,57,76.11,56.11c-4-1-6.15-2.39-6.15-5.72,0-3.62,2.9-5.82,6.72-5.82a10.29,10.29,0,0,1,6.5,2.25.56.56,0,0,1,.29.43,1.26,1.26,0,0,1-.2.46l-.83,1.22c-.14.23-.28.32-.43.32a.85.85,0,0,1-.48-.2,8,8,0,0,0-4.88-1.8c-2.16,0-3.7,1.14-3.7,3s1.28,2.54,4.39,3.31c4.33,1.11,6.24,2.54,6.24,5.7,0,3.59-3,5.93-7.33,5.93A10.72,10.72,0,0,1,69.5,62.7c-.2-.2-.31-.34-.31-.49a.78.78,0,0,1,.2-.48l.85-1.2a.59.59,0,0,1,.43-.31A1,1,0,0,1,71.1,60.45Z"/><path class="cls-2" d="M87.08,55.12c0-.49.17-.63.63-.63H92.9c.22,0,.34-.11.34-.31V49c0-.46.14-.63.63-.63H95c.48,0,.65.17.65.63v5.19c0,.22.09.31.32.31h5.18c.46,0,.63.14.63.63v1.19c0,.49-.17.63-.63.63H96c-.23,0-.32.09-.32.31v5.19c0,.46-.17.63-.65.63H93.87c-.49,0-.63-.17-.63-.63V57.25a.3.3,0,0,0-.34-.31H87.71c-.46,0-.63-.14-.63-.63Z"/><rect class="cls-1" width="4" height="72"/></svg>