<svg id="Layer_1" data-name="Layer 1" xmlns="http://www.w3.org/2000/svg" viewBox="0 0 97.06 72"><defs><style>.cls-1{fill:#fff;}.cls-2{fill:#4285f4;}</style></defs><path class="cls-1" d="M17.76,36.55c-.71,0-1-.3-1-1V8.22c0-.71.29-1,1-1h8.89c8.42,0,12.52,3.15,12.52,9.52a7.88,7.88,0,0,1-5.32,7.75l6.79,10.77A2.14,2.14,0,0,1,41,36c0,.34-.34.51-1,.51H35.91a2,2,0,0,1-2.06-1.22l-7.16-11.9a1.19,1.19,0,0,1-.25-.63c0-.29.25-.42.75-.46,3.52-.38,5.87-2.05,5.87-5.11,0-3.31-2.31-4.78-6.62-4.78H23.17c-.38,0-.55.09-.55.55V35.54c0,.71-.33,1-1,1Z"/><path class="cls-1" d="M39.85,36.55H36.12c-.63,0-.92-.21-.92-.59a2.56,2.56,0,0,1,.21-.71l13-26.61c.79-1.68,1.17-2.1,1.8-2.1S51.16,7,52,8.64L65.11,35.25a2.56,2.56,0,0,1,.21.71c0,.38-.29.59-.92.59h-4c-1,0-1.34-.26-1.84-1.3L50.11,17.4,41.73,35.25C41.23,36.29,40.85,36.55,39.85,36.55Z"/><path class="cls-1" d="M63.73,36.55c-.71,0-1-.3-1-1V8.22c0-.71.29-1,1-1h17c.71,0,1,.3,1,1v3.44c0,.71-.25,1-1,1H69.14c-.38,0-.55.17-.55.55v6.16c0,.37.17.54.55.54H79.28c.79,0,1,.25,1,1.05v3.39c0,.71-.33,1-1,1H69.14c-.38,0-.55.17-.55.54v9.64c0,.71-.33,1-1,1Z"/><path class="cls-2" d="M22.91,44.88c4.7,0,7.49,1.63,7.49,5.31a4.15,4.15,0,0,1-3,4.33A4.34,4.34,0,0,1,31,59c0,4.08-2.85,5.85-8,5.85H17.32c-.46,0-.63-.15-.63-.63V45.51c0-.48.17-.63.63-.63Zm-3.37,8.27c0,.23.09.34.34.34h3.23c2.88,0,4.33-1,4.33-3s-1.57-3-4.73-3H19.88c-.25,0-.34.11-.34.34Zm3.68,2.94H19.88c-.25,0-.34.08-.34.34v5.44c0,.23.09.34.34.34H23c3.51,0,5-.88,5-3.19C28,56.88,26.38,56.09,23.22,56.09Z"/><path class="cls-2" d="M34.76,64.84H33.28c-.37,0-.57-.12-.57-.37a1.71,1.71,0,0,1,.14-.49l8.58-18.07c.57-1.17.74-1.43,1.11-1.43s.49.26,1.06,1.43L52.26,64a1.71,1.71,0,0,1,.14.49c0,.25-.2.37-.6.37H50.21c-.6,0-.8-.17-1.14-.86L42.48,49.79,35.9,64C35.59,64.67,35.36,64.84,34.76,64.84Z"/><path class="cls-2" d="M56.25,60.45a8.53,8.53,0,0,0,5.21,2c2.63,0,4.31-1.2,4.31-3S64.68,57,61.26,56.11c-4-1-6.15-2.39-6.15-5.72,0-3.62,2.9-5.82,6.72-5.82a10.29,10.29,0,0,1,6.5,2.25.56.56,0,0,1,.29.43,1.26,1.26,0,0,1-.2.46l-.83,1.22c-.14.23-.28.32-.43.32a.85.85,0,0,1-.48-.2,8,8,0,0,0-4.87-1.8c-2.17,0-3.71,1.14-3.71,3s1.28,2.54,4.39,3.31c4.33,1.11,6.24,2.54,6.24,5.7,0,3.59-3,5.93-7.32,5.93a10.72,10.72,0,0,1-6.76-2.45c-.2-.2-.31-.34-.31-.49a.78.78,0,0,1,.2-.48l.85-1.2a.59.59,0,0,1,.43-.31A.94.94,0,0,1,56.25,60.45Z"/><path class="cls-2" d="M73.15,64.84c-.46,0-.63-.15-.63-.63V45.51c0-.48.17-.63.63-.63h1.59c.46,0,.63.15.63.63v18.7c0,.48-.17.63-.63.63Z"/><path class="cls-2" d="M95.66,60.13a.7.7,0,0,1,.43.29l.83,1.14a.69.69,0,0,1,.14.4c0,.14-.12.31-.34.51a11.42,11.42,0,0,1-7.39,2.68A10,10,0,0,1,79.19,55,10.13,10.13,0,0,1,89.51,44.57a11.38,11.38,0,0,1,7.24,2.65.57.57,0,0,1,.28.43.84.84,0,0,1-.17.45L96,49.22a.62.62,0,0,1-.45.31,1,1,0,0,1-.49-.23,9.23,9.23,0,0,0-5.64-2,7.3,7.3,0,0,0-7.3,7.61,7.27,7.27,0,0,0,7.3,7.55,8.81,8.81,0,0,0,5.73-2A.91.91,0,0,1,95.66,60.13Z"/><rect class="cls-1" width="4" height="72"/></svg>